<?xml version="1.0" encoding="UTF-8" standalone="no"?><svg xmlns="http://www.w3.org/2000/svg" xmlns:xlink="http://www.w3.org/1999/xlink" contentScriptType="application/ecmascript" contentStyleType="text/css" height="137px" preserveAspectRatio="none" style="width:217px;height:137px;" version="1.1" viewBox="0 0 217 137" width="217px" zoomAndPan="magnify"><defs/><g><ellipse cx="70.5" cy="18" fill="#FF6200" rx="10" ry="10" style="stroke: none; stroke-width: 1.0;"/><rect fill="#FFFFFF" height="68.3474" rx="12.5" ry="12.5" style="stroke: #FF6200; stroke-width: 1.5;" width="129" x="6" y="38"/><line style="stroke: #FF6200; stroke-width: 1.5;" x1="6" x2="135" y1="65.8122" y2="65.8122"/><text fill="#000066" font-family="ING Me" font-size="14" lengthAdjust="spacingAndGlyphs" textLength="41" x="50" y="56.9923">State1</text><text fill="#000066" font-family="ING Me" font-size="12" lengthAdjust="spacingAndGlyphs" textLength="73" x="11" y="82.8056">this is a string</text><text fill="#000066" font-family="ING Me" font-size="12" lengthAdjust="spacingAndGlyphs" textLength="109" x="11" y="98.0732">this is another string</text><ellipse cx="127.5" cy="126" fill="none" rx="10" ry="10" style="stroke: #FF6200; stroke-width: 1.0;"/><ellipse cx="128" cy="126.5" fill="#FF6200" rx="6" ry="6" style="stroke: none; stroke-width: 1.0;"/><rect fill="#FFFFFF" height="50" rx="12.5" ry="12.5" style="stroke: #FF6200; stroke-width: 1.5;" width="61" x="155" y="47"/><line style="stroke: #FF6200; stroke-width: 1.5;" x1="155" x2="216" y1="74.8122" y2="74.8122"/><text fill="#000066" font-family="ING Me" font-size="14" lengthAdjust="spacingAndGlyphs" textLength="41" x="165" y="65.9923">State2</text><path d="M70.5,28.058 C70.5,29.513 70.5,31.093 70.5,32.76 " fill="none" style="stroke: #A80036; stroke-width: 1.0;"/><polygon fill="#A80036" points="70.5,37.9847,74.5,28.9847,70.5,32.9847,66.5,28.9847,70.5,37.9847" style="stroke: #A80036; stroke-width: 1.0;"/><path d="M106.922,106.2268 C110.244,109.2573 113.409,112.1455 116.218,114.708 " fill="none" style="stroke: #A80036; stroke-width: 1.0;"/><polygon fill="#A80036" points="120.31,118.4405,116.3572,109.4197,116.6163,115.0706,110.9653,115.3297,120.31,118.4405" style="stroke: #A80036; stroke-width: 1.0;"/><path d="M135.188,72 C139.998,72 144.809,72 149.62,72 " fill="none" style="stroke: #A80036; stroke-width: 1.0;"/><polygon fill="#A80036" points="154.841,72,145.841,68,149.841,72,145.841,76,154.841,72" style="stroke: #A80036; stroke-width: 1.0;"/><path d="M158.538,97.1732 C151.56,103.4292 144.424,109.8269 138.756,114.908 " fill="none" style="stroke: #A80036; stroke-width: 1.0;"/><polygon fill="#A80036" points="134.736,118.5128,144.1069,115.482,138.4584,115.1746,138.7658,109.5261,134.736,118.5128" style="stroke: #A80036; stroke-width: 1.0;"/></g></svg>